<svg width="40" height="40" viewBox="0 0 40 40" fill="none" xmlns="http://www.w3.org/2000/svg">
<path d="M16.8716 4.6875H23.1216C23.5528 4.6875 23.9028 4.33777 23.9028 3.90625C23.9028 3.47473 23.5528 3.125 23.1216 3.125H16.8716C16.4401 3.125 16.0903 3.47473 16.0903 3.90625C16.0903 4.33777 16.4401 4.6875 16.8716 4.6875Z" fill="#002B47"/>
<path d="M12.1841 7.8125H13.7466C14.1781 7.8125 14.5278 7.46277 14.5278 7.03125C14.5278 6.59973 14.1781 6.25 13.7466 6.25H12.1841C11.7526 6.25 11.4028 6.59973 11.4028 7.03125C11.4028 7.46277 11.7526 7.8125 12.1841 7.8125Z" fill="#002B47"/>
<path d="M24.6841 7.8125H27.8091C28.2403 7.8125 28.5903 7.46277 28.5903 7.03125C28.5903 6.59973 28.2403 6.25 27.8091 6.25H24.6841C24.2526 6.25 23.9028 6.59973 23.9028 7.03125C23.9028 7.46277 24.2526 7.8125 24.6841 7.8125Z" fill="#002B47"/>
<path d="M16.8716 6.25C16.4401 6.25 16.0903 6.59973 16.0903 7.03125C16.0903 7.46277 16.4401 7.8125 16.8716 7.8125H21.5591C21.9903 7.8125 22.3403 7.46277 22.3403 7.03125C22.3403 6.59973 21.9903 6.25 21.5591 6.25H16.8716Z" fill="#002B47"/>
<path d="M12.1841 10.9375H27.8091C28.2403 10.9375 28.5903 10.5878 28.5903 10.1562C28.5903 9.72473 28.2403 9.375 27.8091 9.375H12.1841C11.7526 9.375 11.4028 9.72473 11.4028 10.1562C11.4028 10.5878 11.7526 10.9375 12.1841 10.9375Z" fill="#002B47"/>
<path d="M27.8091 28.125H12.1841C11.7526 28.125 11.4028 28.4747 11.4028 28.9062C11.4028 29.3378 11.7526 29.6875 12.1841 29.6875H27.8091C28.2403 29.6875 28.5903 29.3378 28.5903 28.9062C28.5903 28.4747 28.2406 28.125 27.8091 28.125Z" fill="#002B47"/>
<path d="M18.4345 31.25H12.1845C11.7533 31.25 11.4023 31.6006 11.4023 32.0312C11.4023 32.4619 11.7533 32.8125 12.1845 32.8125H18.4345C18.8648 32.8125 19.2158 32.4619 19.2158 32.0312C19.2158 31.6006 18.8648 31.25 18.4345 31.25Z" fill="#002B47"/>
<path d="M21.5586 31.25C21.128 31.25 20.7773 31.6006 20.7773 32.0312C20.7773 32.4619 21.128 32.8125 21.5586 32.8125C21.9898 32.8125 22.3408 32.4619 22.3408 32.0312C22.3408 31.6006 21.9898 31.25 21.5586 31.25Z" fill="#002B47"/>
<path d="M39.2188 12.5H33.2812V0.78125C33.2812 0.349731 32.9315 0 32.5 0H7.5C7.06848 0 6.71875 0.349731 6.71875 0.78125V12.5H0.78125C0.349731 12.5 0 12.8497 0 13.2812V25.7812C0 26.2128 0.349731 26.5625 0.78125 26.5625H3.59375V39.2188C3.59375 39.6503 3.94348 40 4.375 40H35.625C36.0565 40 36.4062 39.6503 36.4062 39.2188V26.5625H39.2188C39.6503 26.5625 40 26.2128 40 25.7812V13.2812C40 12.8497 39.6503 12.5 39.2188 12.5ZM8.28125 1.5625H31.7188V12.5H8.28125V1.5625ZM9.84375 14.0625H30.1562V15.625H9.84375V14.0625ZM34.8438 38.4375H5.15625V26.5625H6.71875V36.0938C6.71875 36.5253 7.06848 36.875 7.5 36.875H32.5C32.9315 36.875 33.2812 36.5253 33.2812 36.0938V26.5625H34.8438V38.4375ZM8.28125 26.5625H31.7188V35.3125H8.28125V26.5625ZM38.4375 25H1.5625V14.0625H8.28125V16.4062C8.28125 16.8378 8.63098 17.1875 9.0625 17.1875H30.9375C31.369 17.1875 31.7188 16.8378 31.7188 16.4062V14.0625H38.4375V25Z" fill="#002B47"/>
<path d="M10.9375 22.6562C10.9375 23.0878 10.5878 23.4375 10.1562 23.4375C9.72473 23.4375 9.375 23.0878 9.375 22.6562C9.375 22.2247 9.72473 21.875 10.1562 21.875C10.5878 21.875 10.9375 22.2247 10.9375 22.6562Z" fill="#002B47"/>
<path d="M7.8125 22.6562C7.8125 23.0878 7.46277 23.4375 7.03125 23.4375C6.59973 23.4375 6.25 23.0878 6.25 22.6562C6.25 22.2247 6.59973 21.875 7.03125 21.875C7.46277 21.875 7.8125 22.2247 7.8125 22.6562Z" fill="#002B47"/>
<path d="M4.6875 22.6562C4.6875 23.0878 4.33777 23.4375 3.90625 23.4375C3.47473 23.4375 3.125 23.0878 3.125 22.6562C3.125 22.2247 3.47473 21.875 3.90625 21.875C4.33777 21.875 4.6875 22.2247 4.6875 22.6562Z" fill="#002B47"/>
<path d="M7.8125 19.5312C7.8125 19.9628 7.46277 20.3125 7.03125 20.3125C6.59973 20.3125 6.25 19.9628 6.25 19.5312C6.25 19.0997 6.59973 18.75 7.03125 18.75C7.46277 18.75 7.8125 19.0997 7.8125 19.5312Z" fill="#002B47"/>
<path d="M4.6875 19.5312C4.6875 19.9628 4.33777 20.3125 3.90625 20.3125C3.47473 20.3125 3.125 19.9628 3.125 19.5312C3.125 19.0997 3.47473 18.75 3.90625 18.75C4.33777 18.75 4.6875 19.0997 4.6875 19.5312Z" fill="#002B47"/>
<path d="M10.9375 19.5312C10.9375 19.9628 10.5878 20.3125 10.1562 20.3125C9.72473 20.3125 9.375 19.9628 9.375 19.5312C9.375 19.0997 9.72473 18.75 10.1562 18.75C10.5878 18.75 10.9375 19.0997 10.9375 19.5312Z" fill="#002B47"/>
<path d="M32.9688 23.4375H36.0938C36.5253 23.4375 36.875 23.0878 36.875 22.6562V21.0938C36.875 19.8013 35.8237 18.75 34.5312 18.75C33.2388 18.75 32.1875 19.8013 32.1875 21.0938V22.6562C32.1875 23.0878 32.5372 23.4375 32.9688 23.4375ZM33.75 21.0938C33.75 20.6628 34.1003 20.3125 34.5312 20.3125C34.9622 20.3125 35.3125 20.6628 35.3125 21.0938V21.875H33.75V21.0938Z" fill="#002B47"/>
</svg>
