<svg width="40" height="40" viewBox="0 0 40 40" fill="none" xmlns="http://www.w3.org/2000/svg">
<g clip-path="url(#clip0)">
<path d="M40 8.38087C38.1517 5.74126 34.4769 5.04563 31.8368 6.89392L18.262 16.399L13.3258 12.9423C15.1638 9.76899 14.2992 5.66267 11.2391 3.52017C8.00751 1.25813 3.55509 2.04313 1.29212 5.27407C-0.96983 8.50517 -0.185455 12.9585 3.04619 15.2215C5.26369 16.7742 8.05689 16.8906 10.3219 15.767L16.3678 20.0002L10.3224 24.2329C8.05744 23.1099 5.26439 23.2263 3.04673 24.7784C-0.184751 27.0413 -0.969205 31.4942 1.29267 34.7252C3.55564 37.9567 8.00853 38.7417 11.2395 36.4797C14.2993 34.3372 15.1637 30.2309 13.3263 27.0576L18.2624 23.6009L31.8367 33.1054C34.4768 34.9542 38.1517 34.2581 39.9999 31.6184L23.4054 20.0001L40 8.38087ZM7.15837 13.089C5.11361 13.089 3.45587 11.4313 3.45587 9.38649C3.45587 7.34173 5.11369 5.68399 7.15837 5.68399C9.20361 5.68399 10.8609 7.34173 10.8609 9.38649C10.8609 11.4313 9.20361 13.089 7.15837 13.089ZM7.15837 34.3167C5.11361 34.3167 3.45587 32.6589 3.45587 30.6141C3.45587 28.5694 5.11361 26.9116 7.15837 26.9116C9.20361 26.9116 10.8609 28.5694 10.8609 30.6141C10.8609 32.6588 9.20361 34.3167 7.15837 34.3167Z" fill="#002B47"/>
</g>
<defs>
<clipPath id="clip0">
<rect width="40" height="40" fill="white"/>
</clipPath>
</defs>
</svg>
