<svg width="40" height="40" viewBox="0 0 40 40" fill="none" xmlns="http://www.w3.org/2000/svg">
<path d="M32.5 11.6666C31.815 11.6666 31.1766 11.875 30.6466 12.23C30.19 10.9334 28.9516 10 27.5 10C26.815 10 26.1766 10.2084 25.6466 10.5634C25.19 9.26672 23.9516 8.33336 22.5 8.33336C21.8933 8.33336 21.3233 8.49672 20.8333 8.78172V3.33336C20.8333 1.495 19.3383 0 17.5 0C15.6616 0 14.1666 1.495 14.1666 3.33336V22.8184L9.58499 20.5267C8.89499 20.1816 8.12163 20 7.34999 20C5.59334 20 4.16663 21.4284 4.16663 23.1934C4.16663 24.045 4.49827 24.8434 5.09999 25.445L15.8766 36.2216C18.3116 38.6584 21.5533 40 25 40C30.9733 40 35.8333 35.14 35.8333 29.1666V15C35.8333 13.1616 34.3383 11.6666 32.5 11.6666ZM34.1666 29.1666C34.1666 34.2216 30.0533 38.3333 24.9983 38.3333C21.9966 38.3333 19.1766 37.1649 17.0566 35.0416L6.27834 24.265C5.9917 23.98 5.83334 23.5984 5.83334 23.1834C5.83334 22.3467 6.51334 21.6667 7.34999 21.6667C7.86499 21.6667 8.37834 21.7884 8.83999 22.0184L14.6283 24.9117C14.8867 25.0401 15.195 25.0267 15.4383 24.8751C15.6833 24.7234 15.8333 24.4551 15.8333 24.1667V3.33336C15.8333 2.415 16.58 1.66672 17.5 1.66672C18.42 1.66672 19.1666 2.41508 19.1666 3.33336V19.1667C19.1666 19.6267 19.54 20.0001 20 20.0001C20.46 20.0001 20.8333 19.6267 20.8333 19.1667V11.6667C20.8333 10.7484 21.58 10.0001 22.5 10.0001C23.42 10.0001 24.1666 10.7484 24.1666 11.6667V19.1667C24.1666 19.6267 24.54 20.0001 25 20.0001C25.46 20.0001 25.8333 19.6267 25.8333 19.1667V13.3334C25.8333 12.415 26.58 11.6667 27.5 11.6667C28.42 11.6667 29.1666 12.4151 29.1666 13.3334V19.1667C29.1666 19.6267 29.54 20.0001 30 20.0001C30.46 20.0001 30.8333 19.6267 30.8333 19.1667V15C30.8333 14.0816 31.58 13.3334 32.5 13.3334C33.42 13.3334 34.1666 14.0817 34.1666 15V29.1666Z" fill="#002B47"/>
</svg>
